STARTFONT 2.1
COMMENT
COMMENT Converted from OpenType font "chikita.ttf" by "otf2bdf 3.0".
COMMENT
FONT -FreeType-Chikita-Medium-R-Normal--17-120-100-100-P-90-ISO10646-1
SIZE 12 100 100
FONTBOUNDINGBOX 19 21 0 -4
STARTPROPERTIES 19
FOUNDRY "FreeType"
FAMILY_NAME "Chikita"
WEIGHT_NAME "Medium"
SLANT "R"
SETWIDTH_NAME "Normal"
ADD_STYLE_NAME ""
PIXEL_SIZE 17
POINT_SIZE 120
RESOLUTION_X 100
RESOLUTION_Y 100
SPACING "P"
AVERAGE_WIDTH 90
CHARSET_REGISTRY "ISO10646"
CHARSET_ENCODING "1"
FONT_ASCENT 17
FONT_DESCENT 4
COPYRIGHT "Copyright southernmedia 2008  Chikita is based on pixelspace 5x5 by David Chiu (http://fontstruct.com/fontstructors/skyleth)"
_OTF_FONTFILE "chikita.ttf"
_OTF_PSNAME "Chikita"
ENDPROPERTIES
CHARS 260
STARTCHAR 0020
ENCODING 32
SWIDTH 240 0
DWIDTH 4 0
BBX 0 0 0 0
BITMAP
ENDCHAR
STARTCHAR 0021
ENCODING 33
SWIDTH 240 0
DWIDTH 4 0
BBX 2 14 0 -2
BITMAP
C0
C0
C0
C0
C0
C0
C0
C0
C0
C0
00
00
C0
C0
ENDCHAR
STARTCHAR 0022
ENCODING 34
SWIDTH 480 0
DWIDTH 8 0
BBX 6 4 0 8
BITMAP
CC
CC
CC
CC
ENDCHAR
STARTCHAR 0023
ENCODING 35
SWIDTH 720 0
DWIDTH 12 0
BBX 10 10 0 0
BITMAP
3300
3300
FFC0
FFC0
3300
3300
FFC0
FFC0
3300
3300
ENDCHAR
STARTCHAR 0024
ENCODING 36
SWIDTH 720 0
DWIDTH 12 0
BBX 10 14 0 -2
BITMAP
0C00
0C00
3FC0
3FC0
CC00
CC00
3F00
3F00
0CC0
0CC0
FF00
FF00
0C00
0C00
ENDCHAR
STARTCHAR 0025
ENCODING 37
SWIDTH 720 0
DWIDTH 12 0
BBX 10 10 0 0
BITMAP
F0C0
F0C0
F300
F300
0C00
0C00
33C0
33C0
C3C0
C3C0
ENDCHAR
STARTCHAR 0026
ENCODING 38
SWIDTH 720 0
DWIDTH 12 0
BBX 10 10 0 0
BITMAP
0C00
0C00
3300
3300
3CC0
3CC0
C300
C300
3CC0
3CC0
ENDCHAR
STARTCHAR 0027
ENCODING 39
SWIDTH 240 0
DWIDTH 4 0
BBX 2 4 0 8
BITMAP
C0
C0
C0
C0
ENDCHAR
STARTCHAR 0028
ENCODING 40
SWIDTH 480 0
DWIDTH 8 0
BBX 6 14 0 -2
BITMAP
0C
0C
30
30
C0
C0
C0
C0
C0
C0
30
30
0C
0C
ENDCHAR
STARTCHAR 0029
ENCODING 41
SWIDTH 480 0
DWIDTH 8 0
BBX 6 14 0 -2
BITMAP
C0
C0
30
30
0C
0C
0C
0C
0C
0C
30
30
C0
C0
ENDCHAR
STARTCHAR 002A
ENCODING 42
SWIDTH 600 0
DWIDTH 10 0
BBX 6 6 2 2
BITMAP
CC
CC
30
30
CC
CC
ENDCHAR
STARTCHAR 002B
ENCODING 43
SWIDTH 720 0
DWIDTH 12 0
BBX 10 10 0 0
BITMAP
0C00
0C00
0C00
0C00
FFC0
FFC0
0C00
0C00
0C00
0C00
ENDCHAR
STARTCHAR 002C
ENCODING 44
SWIDTH 360 0
DWIDTH 6 0
BBX 4 4 0 -2
BITMAP
30
30
C0
C0
ENDCHAR
STARTCHAR 002D
ENCODING 45
SWIDTH 720 0
DWIDTH 12 0
BBX 10 2 0 4
BITMAP
FFC0
FFC0
ENDCHAR
STARTCHAR 002E
ENCODING 46
SWIDTH 240 0
DWIDTH 4 0
BBX 2 2 0 0
BITMAP
C0
C0
ENDCHAR
STARTCHAR 002F
ENCODING 47
SWIDTH 600 0
DWIDTH 10 0
BBX 6 10 2 0
BITMAP
0C
0C
0C
0C
30
30
C0
C0
C0
C0
ENDCHAR
STARTCHAR 0030
ENCODING 48
SWIDTH 600 0
DWIDTH 10 0
BBX 8 10 0 0
BITMAP
3C
3C
C3
C3
C3
C3
C3
C3
3C
3C
ENDCHAR
STARTCHAR 0031
ENCODING 49
SWIDTH 360 0
DWIDTH 6 0
BBX 4 10 0 0
BITMAP
30
30
F0
F0
30
30
30
30
30
30
ENDCHAR
STARTCHAR 0032
ENCODING 50
SWIDTH 720 0
DWIDTH 12 0
BBX 10 10 0 0
BITMAP
3F00
3F00
C0C0
C0C0
0F00
0F00
3000
3000
FFC0
FFC0
ENDCHAR
STARTCHAR 0033
ENCODING 51
SWIDTH 720 0
DWIDTH 12 0
BBX 10 10 0 0
BITMAP
FF00
FF00
00C0
00C0
3F00
3F00
00C0
00C0
FF00
FF00
ENDCHAR
STARTCHAR 0034
ENCODING 52
SWIDTH 780 0
DWIDTH 13 0
BBX 11 10 0 0
BITMAP
0F00
0F00
3300
3300
C300
C300
FFE0
FFE0
0300
0300
ENDCHAR
STARTCHAR 0035
ENCODING 53
SWIDTH 720 0
DWIDTH 12 0
BBX 10 10 0 0
BITMAP
FFC0
FFC0
C000
C000
FF00
FF00
00C0
00C0
FF00
FF00
ENDCHAR
STARTCHAR 0036
ENCODING 54
SWIDTH 720 0
DWIDTH 12 0
BBX 10 10 0 0
BITMAP
3FC0
3FC0
C000
C000
FF00
FF00
C0C0
C0C0
3F00
3F00
ENDCHAR
STARTCHAR 0037
ENCODING 55
SWIDTH 720 0
DWIDTH 12 0
BBX 10 10 0 0
BITMAP
FFC0
FFC0
00C0
00C0
0300
0300
0C00
0C00
3000
3000
ENDCHAR
STARTCHAR 0038
ENCODING 56
SWIDTH 720 0
DWIDTH 12 0
BBX 10 10 0 0
BITMAP
3F00
3F00
C0C0
C0C0
3F00
3F00
C0C0
C0C0
3F00
3F00
ENDCHAR
STARTCHAR 0039
ENCODING 57
SWIDTH 720 0
DWIDTH 12 0
BBX 10 10 0 0
BITMAP
3F00
3F00
C0C0
C0C0
3FC0
3FC0
00C0
00C0
FF00
FF00
ENDCHAR
STARTCHAR 003A
ENCODING 58
SWIDTH 240 0
DWIDTH 4 0
BBX 2 6 0 2
BITMAP
C0
C0
00
00
C0
C0
ENDCHAR
STARTCHAR 003B
ENCODING 59
SWIDTH 240 0
DWIDTH 4 0
BBX 2 8 0 0
BITMAP
C0
C0
00
00
C0
C0
C0
C0
ENDCHAR
STARTCHAR 003C
ENCODING 60
SWIDTH 720 0
DWIDTH 12 0
BBX 10 10 0 0
BITMAP
03C0
03C0
3C00
3C00
C000
C000
3C00
3C00
03C0
03C0
ENDCHAR
STARTCHAR 003D
ENCODING 61
SWIDTH 720 0
DWIDTH 12 0
BBX 10 6 0 2
BITMAP
FFC0
FFC0
0000
0000
FFC0
FFC0
ENDCHAR
STARTCHAR 003E
ENCODING 62
SWIDTH 720 0
DWIDTH 12 0
BBX 10 10 0 0
BITMAP
F000
F000
0F00
0F00
00C0
00C0
0F00
0F00
F000
F000
ENDCHAR
STARTCHAR 003F
ENCODING 63
SWIDTH 720 0
DWIDTH 12 0
BBX 10 14 0 -2
BITMAP
3F00
3F00
C0C0
C0C0
0300
0300
0C00
0C00
0C00
0C00
0000
0000
0C00
0C00
ENDCHAR
STARTCHAR 0040
ENCODING 64
SWIDTH 1020 0
DWIDTH 17 0
BBX 15 14 0 -2
BITMAP
3FF0
3FF0
C006
C006
C3C6
C3C6
CCC6
CCC6
CFFE
CFFE
C000
C000
3FF0
3FF0
ENDCHAR
STARTCHAR 0041
ENCODING 65
SWIDTH 720 0
DWIDTH 12 0
BBX 10 10 0 0
BITMAP
3F00
3F00
C0C0
C0C0
C0C0
C0C0
FFC0
FFC0
C0C0
C0C0
ENDCHAR
STARTCHAR 0042
ENCODING 66
SWIDTH 720 0
DWIDTH 12 0
BBX 10 10 0 0
BITMAP
FF00
FF00
C0C0
C0C0
FF00
FF00
C0C0
C0C0
FF00
FF00
ENDCHAR
STARTCHAR 0043
ENCODING 67
SWIDTH 720 0
DWIDTH 12 0
BBX 10 10 0 0
BITMAP
3F00
3F00
C0C0
C0C0
C000
C000
C0C0
C0C0
3F00
3F00
ENDCHAR
STARTCHAR 0044
ENCODING 68
SWIDTH 720 0
DWIDTH 12 0
BBX 10 10 0 0
BITMAP
FF00
FF00
C0C0
C0C0
C0C0
C0C0
C0C0
C0C0
FF00
FF00
ENDCHAR
STARTCHAR 0045
ENCODING 69
SWIDTH 780 0
DWIDTH 13 0
BBX 11 10 0 0
BITMAP
FFE0
FFE0
C000
C000
FF80
FF80
C000
C000
FFE0
FFE0
ENDCHAR
STARTCHAR 0046
ENCODING 70
SWIDTH 780 0
DWIDTH 13 0
BBX 11 10 0 0
BITMAP
FFE0
FFE0
C000
C000
FF80
FF80
C000
C000
C000
C000
ENDCHAR
STARTCHAR 0047
ENCODING 71
SWIDTH 720 0
DWIDTH 12 0
BBX 10 10 0 0
BITMAP
3F00
3F00
C000
C000
CFC0
CFC0
C0C0
C0C0
3F00
3F00
ENDCHAR
STARTCHAR 0048
ENCODING 72
SWIDTH 720 0
DWIDTH 12 0
BBX 10 10 0 0
BITMAP
C0C0
C0C0
C0C0
C0C0
FFC0
FFC0
C0C0
C0C0
C0C0
C0C0
ENDCHAR
STARTCHAR 0049
ENCODING 73
SWIDTH 480 0
DWIDTH 8 0
BBX 6 10 0 0
BITMAP
FC
FC
30
30
30
30
30
30
FC
FC
ENDCHAR
STARTCHAR 004A
ENCODING 74
SWIDTH 720 0
DWIDTH 12 0
BBX 10 10 0 0
BITMAP
00C0
00C0
00C0
00C0
00C0
00C0
C0C0
C0C0
3F00
3F00
ENDCHAR
STARTCHAR 004B
ENCODING 75
SWIDTH 720 0
DWIDTH 12 0
BBX 10 10 0 0
BITMAP
C0C0
C0C0
C300
C300
FC00
FC00
C300
C300
C0C0
C0C0
ENDCHAR
STARTCHAR 004C
ENCODING 76
SWIDTH 780 0
DWIDTH 13 0
BBX 11 10 0 0
BITMAP
C000
C000
C000
C000
C000
C000
C000
C000
FFE0
FFE0
ENDCHAR
STARTCHAR 004D
ENCODING 77
SWIDTH 720 0
DWIDTH 12 0
BBX 10 10 0 0
BITMAP
C0C0
C0C0
F3C0
F3C0
CCC0
CCC0
C0C0
C0C0
C0C0
C0C0
ENDCHAR
STARTCHAR 004E
ENCODING 78
SWIDTH 720 0
DWIDTH 12 0
BBX 10 10 0 0
BITMAP
C0C0
C0C0
F0C0
F0C0
CCC0
CCC0
C3C0
C3C0
C0C0
C0C0
ENDCHAR
STARTCHAR 004F
ENCODING 79
SWIDTH 720 0
DWIDTH 12 0
BBX 10 10 0 0
BITMAP
3F00
3F00
C0C0
C0C0
C0C0
C0C0
C0C0
C0C0
3F00
3F00
ENDCHAR
STARTCHAR 0050
ENCODING 80
SWIDTH 720 0
DWIDTH 12 0
BBX 10 10 0 0
BITMAP
FF00
FF00
C0C0
C0C0
C0C0
C0C0
FF00
FF00
C000
C000
ENDCHAR
STARTCHAR 0051
ENCODING 81
SWIDTH 720 0
DWIDTH 12 0
BBX 10 10 0 0
BITMAP
3F00
3F00
C0C0
C0C0
C0C0
C0C0
C3C0
C3C0
3FC0
3FC0
ENDCHAR
STARTCHAR 0052
ENCODING 82
SWIDTH 720 0
DWIDTH 12 0
BBX 10 10 0 0
BITMAP
FF00
FF00
C0C0
C0C0
C0C0
C0C0
FF00
FF00
C0C0
C0C0
ENDCHAR
STARTCHAR 0053
ENCODING 83
SWIDTH 720 0
DWIDTH 12 0
BBX 10 10 0 0
BITMAP
3FC0
3FC0
C000
C000
3F00
3F00
00C0
00C0
FF00
FF00
ENDCHAR
STARTCHAR 0054
ENCODING 84
SWIDTH 720 0
DWIDTH 12 0
BBX 10 10 0 0
BITMAP
FFC0
FFC0
0C00
0C00
0C00
0C00
0C00
0C00
0C00
0C00
ENDCHAR
STARTCHAR 0055
ENCODING 85
SWIDTH 720 0
DWIDTH 12 0
BBX 10 10 0 0
BITMAP
C0C0
C0C0
C0C0
C0C0
C0C0
C0C0
C0C0
C0C0
3F00
3F00
ENDCHAR
STARTCHAR 0056
ENCODING 86
SWIDTH 720 0
DWIDTH 12 0
BBX 10 10 0 0
BITMAP
C0C0
C0C0
C0C0
C0C0
C0C0
C0C0
3300
3300
0C00
0C00
ENDCHAR
STARTCHAR 0057
ENCODING 87
SWIDTH 720 0
DWIDTH 12 0
BBX 10 10 0 0
BITMAP
C0C0
C0C0
CCC0
CCC0
CCC0
CCC0
CCC0
CCC0
3300
3300
ENDCHAR
STARTCHAR 0058
ENCODING 88
SWIDTH 720 0
DWIDTH 12 0
BBX 10 10 0 0
BITMAP
C0C0
C0C0
3300
3300
0C00
0C00
3300
3300
C0C0
C0C0
ENDCHAR
STARTCHAR 0059
ENCODING 89
SWIDTH 720 0
DWIDTH 12 0
BBX 10 10 0 0
BITMAP
C0C0
C0C0
C0C0
C0C0
3300
3300
0C00
0C00
0C00
0C00
ENDCHAR
STARTCHAR 005A
ENCODING 90
SWIDTH 720 0
DWIDTH 12 0
BBX 10 10 0 0
BITMAP
FFC0
FFC0
0300
0300
0C00
0C00
3000
3000
FFC0
FFC0
ENDCHAR
STARTCHAR 005B
ENCODING 91
SWIDTH 360 0
DWIDTH 6 0
BBX 4 12 0 -2
BITMAP
F0
F0
C0
C0
C0
C0
C0
C0
C0
C0
F0
F0
ENDCHAR
STARTCHAR 005C
ENCODING 92
SWIDTH 480 0
DWIDTH 8 0
BBX 6 10 0 0
BITMAP
C0
C0
C0
C0
30
30
0C
0C
0C
0C
ENDCHAR
STARTCHAR 005D
ENCODING 93
SWIDTH 360 0
DWIDTH 6 0
BBX 4 12 0 -2
BITMAP
F0
F0
30
30
30
30
30
30
30
30
F0
F0
ENDCHAR
STARTCHAR 005E
ENCODING 94
SWIDTH 480 0
DWIDTH 8 0
BBX 6 4 0 8
BITMAP
30
30
CC
CC
ENDCHAR
STARTCHAR 005F
ENCODING 95
SWIDTH 720 0
DWIDTH 12 0
BBX 10 2 0 -2
BITMAP
FFC0
FFC0
ENDCHAR
STARTCHAR 0060
ENCODING 96
SWIDTH 360 0
DWIDTH 6 0
BBX 4 4 0 8
BITMAP
C0
C0
30
30
ENDCHAR
STARTCHAR 0061
ENCODING 97
SWIDTH 600 0
DWIDTH 10 0
BBX 8 8 0 0
BITMAP
3F
3F
C3
C3
C3
C3
FF
FF
ENDCHAR
STARTCHAR 0062
ENCODING 98
SWIDTH 600 0
DWIDTH 10 0
BBX 8 10 0 0
BITMAP
C0
C0
FC
FC
C3
C3
C3
C3
FC
FC
ENDCHAR
STARTCHAR 0063
ENCODING 99
SWIDTH 600 0
DWIDTH 10 0
BBX 8 8 0 0
BITMAP
3F
3F
C0
C0
C0
C0
3F
3F
ENDCHAR
STARTCHAR 0064
ENCODING 100
SWIDTH 600 0
DWIDTH 10 0
BBX 8 10 0 0
BITMAP
03
03
3F
3F
C3
C3
C3
C3
3F
3F
ENDCHAR
STARTCHAR 0065
ENCODING 101
SWIDTH 600 0
DWIDTH 10 0
BBX 8 8 0 0
BITMAP
3C
3C
C3
C3
FC
FC
3F
3F
ENDCHAR
STARTCHAR 0066
ENCODING 102
SWIDTH 600 0
DWIDTH 10 0
BBX 8 10 0 0
BITMAP
0F
0F
30
30
FF
FF
30
30
30
30
ENDCHAR
STARTCHAR 0067
ENCODING 103
SWIDTH 600 0
DWIDTH 10 0
BBX 8 12 0 -4
BITMAP
3F
3F
C3
C3
C3
C3
FF
FF
03
03
FC
FC
ENDCHAR
STARTCHAR 0068
ENCODING 104
SWIDTH 600 0
DWIDTH 10 0
BBX 8 10 0 0
BITMAP
C0
C0
FC
FC
C3
C3
C3
C3
C3
C3
ENDCHAR
STARTCHAR 0069
ENCODING 105
SWIDTH 240 0
DWIDTH 4 0
BBX 2 10 0 0
BITMAP
C0
C0
00
00
C0
C0
C0
C0
C0
C0
ENDCHAR
STARTCHAR 006A
ENCODING 106
SWIDTH 360 0
DWIDTH 6 0
BBX 4 14 0 -4
BITMAP
30
30
00
00
30
30
30
30
30
30
30
30
C0
C0
ENDCHAR
STARTCHAR 006B
ENCODING 107
SWIDTH 600 0
DWIDTH 10 0
BBX 8 10 0 0
BITMAP
C0
C0
C3
C3
CC
CC
FC
FC
C3
C3
ENDCHAR
STARTCHAR 006C
ENCODING 108
SWIDTH 240 0
DWIDTH 4 0
BBX 2 10 0 0
BITMAP
C0
C0
C0
C0
C0
C0
C0
C0
C0
C0
ENDCHAR
STARTCHAR 006D
ENCODING 109
SWIDTH 840 0
DWIDTH 14 0
BBX 12 8 0 0
BITMAP
CCC0
CCC0
F330
F330
C330
C330
C330
C330
ENDCHAR
STARTCHAR 006E
ENCODING 110
SWIDTH 600 0
DWIDTH 10 0
BBX 8 8 0 0
BITMAP
CC
CC
F3
F3
C3
C3
C3
C3
ENDCHAR
STARTCHAR 006F
ENCODING 111
SWIDTH 600 0
DWIDTH 10 0
BBX 8 8 0 0
BITMAP
3C
3C
C3
C3
C3
C3
3C
3C
ENDCHAR
STARTCHAR 0070
ENCODING 112
SWIDTH 600 0
DWIDTH 10 0
BBX 8 12 0 -4
BITMAP
FC
FC
C3
C3
C3
C3
FC
FC
C0
C0
C0
C0
ENDCHAR
STARTCHAR 0071
ENCODING 113
SWIDTH 600 0
DWIDTH 10 0
BBX 8 12 0 -4
BITMAP
3F
3F
C3
C3
C3
C3
3F
3F
03
03
03
03
ENDCHAR
STARTCHAR 0072
ENCODING 114
SWIDTH 600 0
DWIDTH 10 0
BBX 8 8 0 0
BITMAP
CF
CF
F0
F0
C0
C0
C0
C0
ENDCHAR
STARTCHAR 0073
ENCODING 115
SWIDTH 600 0
DWIDTH 10 0
BBX 8 8 0 0
BITMAP
3F
3F
F0
F0
0F
0F
FC
FC
ENDCHAR
STARTCHAR 0074
ENCODING 116
SWIDTH 600 0
DWIDTH 10 0
BBX 8 10 0 0
BITMAP
30
30
FF
FF
30
30
30
30
0F
0F
ENDCHAR
STARTCHAR 0075
ENCODING 117
SWIDTH 600 0
DWIDTH 10 0
BBX 8 8 0 0
BITMAP
C3
C3
C3
C3
C3
C3
3F
3F
ENDCHAR
STARTCHAR 0076
ENCODING 118
SWIDTH 720 0
DWIDTH 12 0
BBX 10 8 0 0
BITMAP
C0C0
C0C0
C0C0
C0C0
3300
3300
0C00
0C00
ENDCHAR
STARTCHAR 0077
ENCODING 119
SWIDTH 720 0
DWIDTH 12 0
BBX 10 8 0 0
BITMAP
C0C0
C0C0
C0C0
C0C0
CCC0
CCC0
3300
3300
ENDCHAR
STARTCHAR 0078
ENCODING 120
SWIDTH 600 0
DWIDTH 10 0
BBX 8 8 0 0
BITMAP
C3
C3
3C
3C
3C
3C
C3
C3
ENDCHAR
STARTCHAR 0079
ENCODING 121
SWIDTH 600 0
DWIDTH 10 0
BBX 8 12 0 -4
BITMAP
C3
C3
C3
C3
C3
C3
3F
3F
03
03
FC
FC
ENDCHAR
STARTCHAR 007A
ENCODING 122
SWIDTH 600 0
DWIDTH 10 0
BBX 8 8 0 0
BITMAP
FF
FF
0C
0C
30
30
FF
FF
ENDCHAR
STARTCHAR 007B
ENCODING 123
SWIDTH 540 0
DWIDTH 9 0
BBX 7 12 0 -2
BITMAP
3E
3E
30
30
C0
C0
C0
C0
30
30
3E
3E
ENDCHAR
STARTCHAR 007C
ENCODING 124
SWIDTH 240 0
DWIDTH 4 0
BBX 2 12 0 -2
BITMAP
C0
C0
C0
C0
C0
C0
C0
C0
C0
C0
C0
C0
ENDCHAR
STARTCHAR 007D
ENCODING 125
SWIDTH 480 0
DWIDTH 8 0
BBX 6 12 0 -2
BITMAP
F0
F0
30
30
0C
0C
0C
0C
30
30
F0
F0
ENDCHAR
STARTCHAR 007E
ENCODING 126
SWIDTH 720 0
DWIDTH 12 0
BBX 10 6 0 2
BITMAP
3000
3000
CCC0
CCC0
0300
0300
ENDCHAR
STARTCHAR 00A1
ENCODING 161
SWIDTH 240 0
DWIDTH 4 0
BBX 2 14 0 -2
BITMAP
C0
C0
00
00
C0
C0
C0
C0
C0
C0
C0
C0
C0
C0
ENDCHAR
STARTCHAR 00A2
ENCODING 162
SWIDTH 540 0
DWIDTH 9 0
BBX 7 10 0 0
BITMAP
30
30
FE
FE
C0
C0
FE
FE
30
30
ENDCHAR
STARTCHAR 00A3
ENCODING 163
SWIDTH 720 0
DWIDTH 12 0
BBX 10 12 0 0
BITMAP
3F00
3F00
C0C0
C0C0
30C0
30C0
FC00
FC00
3000
3000
FFC0
FFC0
ENDCHAR
STARTCHAR 00A4
ENCODING 164
SWIDTH 720 0
DWIDTH 12 0
BBX 10 10 0 0
BITMAP
C0C0
C0C0
3F00
3F00
3300
3300
3F00
3F00
C0C0
C0C0
ENDCHAR
STARTCHAR 00A5
ENCODING 165
SWIDTH 720 0
DWIDTH 12 0
BBX 10 12 0 0
BITMAP
C0C0
C0C0
3300
3300
0C00
0C00
3F00
0C00
3F00
0C00
0C00
0C00
ENDCHAR
STARTCHAR 00A6
ENCODING 166
SWIDTH 240 0
DWIDTH 4 0
BBX 2 10 0 0
BITMAP
C0
C0
C0
C0
00
00
C0
C0
C0
C0
ENDCHAR
STARTCHAR 00A7
ENCODING 167
SWIDTH 600 0
DWIDTH 10 0
BBX 8 14 0 -4
BITMAP
3F
3F
C0
C0
3C
3C
C3
C3
3C
3C
03
03
FC
FC
ENDCHAR
STARTCHAR 00A8
ENCODING 168
SWIDTH 480 0
DWIDTH 8 0
BBX 6 2 0 12
BITMAP
CC
CC
ENDCHAR
STARTCHAR 00A9
ENCODING 169
SWIDTH 1020 0
DWIDTH 17 0
BBX 15 14 0 -2
BITMAP
3FF0
3FF0
C006
C006
CFC6
CFC6
CC06
CC06
CFC6
CFC6
C006
C006
3FF0
3FF0
ENDCHAR
STARTCHAR 00AA
ENCODING 170
SWIDTH 480 0
DWIDTH 8 0
BBX 6 8 0 9
BITMAP
3C
3C
CC
FC
FC
CC
3C
3C
ENDCHAR
STARTCHAR 00AB
ENCODING 171
SWIDTH 840 0
DWIDTH 14 0
BBX 12 10 0 0
BITMAP
0C30
0C30
30C0
30C0
C300
C300
30C0
30C0
0C30
0C30
ENDCHAR
STARTCHAR 00AC
ENCODING 172
SWIDTH 780 0
DWIDTH 13 0
BBX 11 6 0 4
BITMAP
FFE0
FFE0
0060
0060
0060
0060
ENDCHAR
STARTCHAR 00AD
ENCODING 173
SWIDTH 600 0
DWIDTH 10 0
BBX 6 2 2 4
BITMAP
FC
FC
ENDCHAR
STARTCHAR 00AE
ENCODING 174
SWIDTH 1020 0
DWIDTH 17 0
BBX 15 14 0 -2
BITMAP
3FF0
3FF0
C006
C006
CFC6
CFC6
CF06
CF06
CCC6
CCC6
C006
C006
3FF0
3FF0
ENDCHAR
STARTCHAR 00AF
ENCODING 175
SWIDTH 720 0
DWIDTH 12 0
BBX 10 2 0 12
BITMAP
FFC0
FFC0
ENDCHAR
STARTCHAR 00B0
ENCODING 176
SWIDTH 600 0
DWIDTH 10 0
BBX 8 8 0 6
BITMAP
3C
3C
C3
C3
C3
C3
3C
3C
ENDCHAR
STARTCHAR 00B1
ENCODING 177
SWIDTH 600 0
DWIDTH 10 0
BBX 6 10 2 0
BITMAP
30
30
FC
FC
30
30
00
00
FC
FC
ENDCHAR
STARTCHAR 00B2
ENCODING 178
SWIDTH 600 0
DWIDTH 10 0
BBX 8 11 0 4
BITMAP
3C
3C
00
C3
C3
0C
0C
30
30
FF
FF
ENDCHAR
STARTCHAR 00B3
ENCODING 179
SWIDTH 600 0
DWIDTH 10 0
BBX 8 11 0 4
BITMAP
FC
FC
00
03
03
3C
3C
03
03
FC
FC
ENDCHAR
STARTCHAR 00B4
ENCODING 180
SWIDTH 360 0
DWIDTH 6 0
BBX 4 4 0 10
BITMAP
30
30
C0
C0
ENDCHAR
STARTCHAR 00B5
ENCODING 181
SWIDTH 720 0
DWIDTH 12 0
BBX 10 12 0 -4
BITMAP
C0C0
C0C0
C0C0
C0C0
F3C0
F3C0
CCC0
CCC0
C000
C000
C000
C000
ENDCHAR
STARTCHAR 00B6
ENCODING 182
SWIDTH 840 0
DWIDTH 14 0
BBX 12 14 0 -4
BITMAP
3FF0
3FF0
FCC0
FCC0
FCC0
FCC0
3CC0
3CC0
0CC0
0CC0
0CC0
0CC0
0CC0
0CC0
ENDCHAR
STARTCHAR 00B7
ENCODING 183
SWIDTH 600 0
DWIDTH 10 0
BBX 6 6 2 2
BITMAP
FC
FC
FC
FC
FC
FC
ENDCHAR
STARTCHAR 00B8
ENCODING 184
SWIDTH 600 0
DWIDTH 10 0
BBX 6 6 2 -4
BITMAP
30
30
0C
0C
FC
FC
ENDCHAR
STARTCHAR 00B9
ENCODING 185
SWIDTH 360 0
DWIDTH 6 0
BBX 4 11 0 4
BITMAP
30
30
30
F0
F0
30
30
30
30
30
30
ENDCHAR
STARTCHAR 00BA
ENCODING 186
SWIDTH 600 0
DWIDTH 10 0
BBX 8 11 0 4
BITMAP
3C
3C
00
C3
C3
C3
C3
C3
C3
3C
3C
ENDCHAR
STARTCHAR 00BB
ENCODING 187
SWIDTH 840 0
DWIDTH 14 0
BBX 12 10 0 0
BITMAP
C300
C300
30C0
30C0
0C30
0C30
30C0
30C0
C300
C300
ENDCHAR
STARTCHAR 00BC
ENCODING 188
SWIDTH 1020 0
DWIDTH 17 0
BBX 15 16 0 -4
BITMAP
3006
3006
F030
F030
30C0
30C0
3300
3300
0C3E
0C3E
30C6
30C6
C0FE
C0FE
0006
0006
ENDCHAR
STARTCHAR 00BD
ENCODING 189
SWIDTH 1020 0
DWIDTH 17 0
BBX 15 16 0 -4
BITMAP
3006
3006
F030
F030
30C0
30C0
3300
3300
0CF0
0CF0
3006
3006
C030
C030
00FE
00FE
ENDCHAR
STARTCHAR 00BE
ENCODING 190
SWIDTH 1020 0
DWIDTH 17 0
BBX 15 16 0 -4
BITMAP
FC06
FC06
3030
3030
0CC0
0CC0
F300
F300
0C3E
0C3E
30C6
30C6
C0FE
C0FE
0006
0006
ENDCHAR
STARTCHAR 00BF
ENCODING 191
SWIDTH 720 0
DWIDTH 12 0
BBX 10 14 0 -2
BITMAP
0C00
0C00
0000
0000
0C00
0C00
0C00
0C00
30C0
30C0
C0C0
C0C0
3F00
3F00
ENDCHAR
STARTCHAR 00C0
ENCODING 192
SWIDTH 720 0
DWIDTH 12 0
BBX 10 16 0 0
BITMAP
3000
3000
0C00
0C00
0000
0000
3F00
3F00
C0C0
C0C0
C0C0
C0C0
FFC0
FFC0
C0C0
C0C0
ENDCHAR
STARTCHAR 00C1
ENCODING 193
SWIDTH 720 0
DWIDTH 12 0
BBX 10 16 0 0
BITMAP
0300
0300
0C00
0C00
0000
0000
3F00
3F00
C0C0
C0C0
C0C0
C0C0
FFC0
FFC0
C0C0
C0C0
ENDCHAR
STARTCHAR 00C2
ENCODING 194
SWIDTH 720 0
DWIDTH 12 0
BBX 10 16 0 0
BITMAP
0C00
0C00
3300
3300
0000
0000
3F00
3F00
C0C0
C0C0
C0C0
C0C0
FFC0
FFC0
C0C0
C0C0
ENDCHAR
STARTCHAR 00C3
ENCODING 195
SWIDTH 720 0
DWIDTH 12 0
BBX 10 16 0 0
BITMAP
0CC0
0CC0
3300
3300
0000
0000
3F00
3F00
C0C0
C0C0
C0C0
C0C0
FFC0
FFC0
C0C0
C0C0
ENDCHAR
STARTCHAR 00C4
ENCODING 196
SWIDTH 720 0
DWIDTH 12 0
BBX 10 14 0 0
BITMAP
3300
3300
0000
0000
3F00
3F00
C0C0
C0C0
C0C0
C0C0
FFC0
FFC0
C0C0
C0C0
ENDCHAR
STARTCHAR 00C5
ENCODING 197
SWIDTH 720 0
DWIDTH 12 0
BBX 10 16 0 0
BITMAP
0C00
0C00
3300
3300
0C00
0C00
3F00
3F00
C0C0
C0C0
C0C0
C0C0
FFC0
FFC0
C0C0
C0C0
ENDCHAR
STARTCHAR 00C6
ENCODING 198
SWIDTH 1200 0
DWIDTH 20 0
BBX 18 10 0 0
BITMAP
0FFFC0
0FFFC0
30C000
30C000
C0FF00
C0FF00
FFC000
FFC000
C0FFC0
C0FFC0
ENDCHAR
STARTCHAR 00C7
ENCODING 199
SWIDTH 720 0
DWIDTH 12 0
BBX 10 14 0 -4
BITMAP
3F00
3F00
C0C0
C0C0
C000
C000
C0C0
C0C0
3F00
3F00
0300
0300
3F00
3F00
ENDCHAR
STARTCHAR 00C8
ENCODING 200
SWIDTH 780 0
DWIDTH 13 0
BBX 11 16 0 0
BITMAP
3000
3000
0C00
0C00
0000
0000
FFE0
FFE0
C000
C000
FF80
FF80
C000
C000
FFE0
FFE0
ENDCHAR
STARTCHAR 00C9
ENCODING 201
SWIDTH 780 0
DWIDTH 13 0
BBX 11 16 0 0
BITMAP
0300
0300
0C00
0C00
0000
0000
FFE0
FFE0
C000
C000
FF00
FF00
C000
C000
FFE0
FFE0
ENDCHAR
STARTCHAR 00CA
ENCODING 202
SWIDTH 780 0
DWIDTH 13 0
BBX 11 16 0 0
BITMAP
0C00
0C00
3300
3300
0000
0000
FFE0
FFE0
C000
C000
FF00
FF00
C000
C000
FFE0
FFE0
ENDCHAR
STARTCHAR 00CB
ENCODING 203
SWIDTH 780 0
DWIDTH 13 0
BBX 11 14 0 0
BITMAP
3300
3300
0000
0000
FFE0
FFE0
C000
C000
FF00
FF00
C000
C000
FFE0
FFE0
ENDCHAR
STARTCHAR 00CC
ENCODING 204
SWIDTH 480 0
DWIDTH 8 0
BBX 6 16 0 0
BITMAP
C0
C0
30
30
00
00
FC
FC
30
30
30
30
30
30
FC
FC
ENDCHAR
STARTCHAR 00CD
ENCODING 205
SWIDTH 480 0
DWIDTH 8 0
BBX 6 16 0 0
BITMAP
0C
0C
30
30
00
00
FC
FC
30
30
30
30
30
30
FC
FC
ENDCHAR
STARTCHAR 00CE
ENCODING 206
SWIDTH 480 0
DWIDTH 8 0
BBX 6 16 0 0
BITMAP
30
30
CC
CC
00
00
FC
FC
30
30
30
30
30
30
FC
FC
ENDCHAR
STARTCHAR 00CF
ENCODING 207
SWIDTH 480 0
DWIDTH 8 0
BBX 6 14 0 0
BITMAP
CC
CC
00
00
FC
FC
30
30
30
30
30
30
FC
FC
ENDCHAR
STARTCHAR 00D0
ENCODING 208
SWIDTH 720 0
DWIDTH 12 0
BBX 10 10 0 0
BITMAP
3F00
3F00
30C0
30C0
FCC0
FCC0
30C0
30C0
3F00
3F00
ENDCHAR
STARTCHAR 00D1
ENCODING 209
SWIDTH 720 0
DWIDTH 12 0
BBX 10 16 0 0
BITMAP
0CC0
0CC0
3300
3300
0000
0000
C0C0
C0C0
F0C0
F0C0
CCC0
CCC0
C3C0
C3C0
C0C0
C0C0
ENDCHAR
STARTCHAR 00D2
ENCODING 210
SWIDTH 720 0
DWIDTH 12 0
BBX 10 16 0 0
BITMAP
3000
3000
0C00
0C00
0000
0000
3F00
3F00
C0C0
C0C0
C0C0
C0C0
C0C0
C0C0
3F00
3F00
ENDCHAR
STARTCHAR 00D3
ENCODING 211
SWIDTH 720 0
DWIDTH 12 0
BBX 10 16 0 0
BITMAP
0300
0300
0C00
0C00
0000
0000
3F00
3F00
C0C0
C0C0
C0C0
C0C0
C0C0
C0C0
3F00
3F00
ENDCHAR
STARTCHAR 00D4
ENCODING 212
SWIDTH 720 0
DWIDTH 12 0
BBX 10 16 0 0
BITMAP
0C00
0C00
3300
3300
0000
0000
3F00
3F00
C0C0
C0C0
C0C0
C0C0
C0C0
C0C0
3F00
3F00
ENDCHAR
STARTCHAR 00D5
ENCODING 213
SWIDTH 720 0
DWIDTH 12 0
BBX 10 16 0 0
BITMAP
3000
3000
CCC0
CCC0
0300
0300
3F00
3F00
C0C0
C0C0
C0C0
C0C0
C0C0
C0C0
3F00
3F00
ENDCHAR
STARTCHAR 00D6
ENCODING 214
SWIDTH 720 0
DWIDTH 12 0
BBX 10 14 0 0
BITMAP
3300
3300
0000
0000
3F00
3F00
C0C0
C0C0
C0C0
C0C0
C0C0
C0C0
3F00
3F00
ENDCHAR
STARTCHAR 00D7
ENCODING 215
SWIDTH 480 0
DWIDTH 8 0
BBX 6 6 0 2
BITMAP
CC
CC
30
30
CC
CC
ENDCHAR
STARTCHAR 00D8
ENCODING 216
SWIDTH 720 0
DWIDTH 12 0
BBX 10 10 0 0
BITMAP
3FC0
3FC0
C3C0
C3C0
CCC0
CCC0
F0C0
F0C0
FF00
FF00
ENDCHAR
STARTCHAR 00D9
ENCODING 217
SWIDTH 720 0
DWIDTH 12 0
BBX 10 16 0 0
BITMAP
3000
3000
0C00
0C00
0000
0000
C0C0
C0C0
C0C0
C0C0
C0C0
C0C0
C0C0
C0C0
3F00
3F00
ENDCHAR
STARTCHAR 00DA
ENCODING 218
SWIDTH 720 0
DWIDTH 12 0
BBX 10 16 0 0
BITMAP
0300
0300
0C00
0C00
0000
0000
C0C0
C0C0
C0C0
C0C0
C0C0
C0C0
C0C0
C0C0
3F00
3F00
ENDCHAR
STARTCHAR 00DB
ENCODING 219
SWIDTH 720 0
DWIDTH 12 0
BBX 10 16 0 0
BITMAP
0C00
0C00
3300
3300
0000
0000
C0C0
C0C0
C0C0
C0C0
C0C0
C0C0
C0C0
C0C0
3F00
3F00
ENDCHAR
STARTCHAR 00DC
ENCODING 220
SWIDTH 720 0
DWIDTH 12 0
BBX 10 14 0 0
BITMAP
3300
3300
0000
0000
C0C0
C0C0
C0C0
C0C0
C0C0
C0C0
C0C0
C0C0
3F00
3F00
ENDCHAR
STARTCHAR 00DD
ENCODING 221
SWIDTH 720 0
DWIDTH 12 0
BBX 10 16 0 0
BITMAP
0300
0300
0C00
0C00
0000
0000
C0C0
C0C0
C0C0
C0C0
3300
3300
0C00
0C00
0C00
0C00
ENDCHAR
STARTCHAR 00DE
ENCODING 222
SWIDTH 720 0
DWIDTH 12 0
BBX 10 10 0 0
BITMAP
C000
C000
FF00
FF00
C0C0
C0C0
FF00
FF00
C000
C000
ENDCHAR
STARTCHAR 00DF
ENCODING 223
SWIDTH 600 0
DWIDTH 10 0
BBX 8 10 0 0
BITMAP
3C
3C
C3
C3
CC
CC
C3
C3
CC
CC
ENDCHAR
STARTCHAR 00E0
ENCODING 224
SWIDTH 600 0
DWIDTH 10 0
BBX 8 14 0 0
BITMAP
30
30
0C
0C
00
00
3F
3F
C3
C3
C3
C3
FF
FF
ENDCHAR
STARTCHAR 00E1
ENCODING 225
SWIDTH 600 0
DWIDTH 10 0
BBX 8 14 0 0
BITMAP
0C
0C
30
30
00
00
3F
3F
C3
C3
C3
C3
FF
FF
ENDCHAR
STARTCHAR 00E2
ENCODING 226
SWIDTH 600 0
DWIDTH 10 0
BBX 8 14 0 0
BITMAP
0C
0C
33
33
00
00
3F
3F
C3
C3
C3
C3
FF
FF
ENDCHAR
STARTCHAR 00E3
ENCODING 227
SWIDTH 600 0
DWIDTH 10 0
BBX 8 14 0 0
BITMAP
33
33
CC
CC
00
00
3F
3F
C3
C3
C3
C3
FF
FF
ENDCHAR
STARTCHAR 00E4
ENCODING 228
SWIDTH 600 0
DWIDTH 10 0
BBX 8 12 0 0
BITMAP
33
33
00
00
3F
3F
C3
C3
C3
C3
FF
FF
ENDCHAR
STARTCHAR 00E5
ENCODING 229
SWIDTH 600 0
DWIDTH 10 0
BBX 8 14 0 0
BITMAP
0C
0C
33
33
0C
0C
3F
3F
C3
C3
C3
C3
FF
FF
ENDCHAR
STARTCHAR 00E6
ENCODING 230
SWIDTH 1020 0
DWIDTH 17 0
BBX 15 10 0 0
BITMAP
FCF0
FCF0
0306
0306
3FFE
3FFE
C300
C300
FCFE
FCFE
ENDCHAR
STARTCHAR 00E7
ENCODING 231
SWIDTH 600 0
DWIDTH 10 0
BBX 8 12 0 -4
BITMAP
3F
3F
C0
C0
C0
C0
3F
3F
0C
0C
3C
3C
ENDCHAR
STARTCHAR 00E8
ENCODING 232
SWIDTH 600 0
DWIDTH 10 0
BBX 8 14 0 0
BITMAP
30
30
0C
0C
00
00
3C
3C
C3
C3
FC
FC
3F
3F
ENDCHAR
STARTCHAR 00E9
ENCODING 233
SWIDTH 600 0
DWIDTH 10 0
BBX 8 14 0 0
BITMAP
0C
0C
30
30
00
00
3C
3C
C3
C3
FC
FC
3F
3F
ENDCHAR
STARTCHAR 00EA
ENCODING 234
SWIDTH 600 0
DWIDTH 10 0
BBX 8 14 0 0
BITMAP
0C
0C
33
33
00
00
3C
3C
C3
C3
FC
FC
3F
3F
ENDCHAR
STARTCHAR 00EB
ENCODING 235
SWIDTH 600 0
DWIDTH 10 0
BBX 8 12 0 0
BITMAP
33
33
00
00
3C
3C
C3
C3
FC
FC
3F
3F
ENDCHAR
STARTCHAR 00EC
ENCODING 236
SWIDTH 360 0
DWIDTH 6 0
BBX 4 14 0 0
BITMAP
C0
C0
30
30
00
00
30
30
30
30
30
30
30
30
ENDCHAR
STARTCHAR 00ED
ENCODING 237
SWIDTH 360 0
DWIDTH 6 0
BBX 4 14 0 0
BITMAP
30
30
C0
C0
00
00
C0
C0
C0
C0
C0
C0
C0
C0
ENDCHAR
STARTCHAR 00EE
ENCODING 238
SWIDTH 480 0
DWIDTH 8 0
BBX 6 14 0 0
BITMAP
30
30
CC
CC
00
00
30
30
30
30
30
30
30
30
ENDCHAR
STARTCHAR 00EF
ENCODING 239
SWIDTH 480 0
DWIDTH 8 0
BBX 6 12 0 0
BITMAP
CC
CC
00
00
30
30
30
30
30
30
30
30
ENDCHAR
STARTCHAR 00F0
ENCODING 240
SWIDTH 600 0
DWIDTH 10 0
BBX 8 12 0 0
BITMAP
30
30
0C
0C
3F
3F
C3
C3
C3
C3
3C
3C
ENDCHAR
STARTCHAR 00F1
ENCODING 241
SWIDTH 600 0
DWIDTH 10 0
BBX 8 14 0 0
BITMAP
33
33
CC
CC
00
00
CC
CC
F3
F3
C3
C3
C3
C3
ENDCHAR
STARTCHAR 00F2
ENCODING 242
SWIDTH 600 0
DWIDTH 10 0
BBX 8 14 0 0
BITMAP
30
30
0C
0C
00
00
3C
3C
C3
C3
C3
C3
3C
3C
ENDCHAR
STARTCHAR 00F3
ENCODING 243
SWIDTH 600 0
DWIDTH 10 0
BBX 8 14 0 0
BITMAP
0C
0C
30
30
00
00
3C
3C
C3
C3
C3
C3
3C
3C
ENDCHAR
STARTCHAR 00F4
ENCODING 244
SWIDTH 600 0
DWIDTH 10 0
BBX 8 14 0 0
BITMAP
3C
3C
C3
C3
00
00
3C
3C
C3
C3
C3
C3
3C
3C
ENDCHAR
STARTCHAR 00F5
ENCODING 245
SWIDTH 600 0
DWIDTH 10 0
BBX 8 14 0 0
BITMAP
33
33
CC
CC
00
00
3C
3C
C3
C3
C3
C3
3C
3C
ENDCHAR
STARTCHAR 00F6
ENCODING 246
SWIDTH 600 0
DWIDTH 10 0
BBX 8 12 0 0
BITMAP
33
33
00
00
3C
3C
C3
C3
C3
C3
3C
3C
ENDCHAR
STARTCHAR 00F7
ENCODING 247
SWIDTH 720 0
DWIDTH 12 0
BBX 10 10 0 0
BITMAP
0C00
0C00
0000
0000
FFC0
FFC0
0000
0000
0C00
0C00
ENDCHAR
STARTCHAR 00F8
ENCODING 248
SWIDTH 600 0
DWIDTH 10 0
BBX 8 8 0 0
BITMAP
3F
3F
CF
CF
F3
F3
FC
FC
ENDCHAR
STARTCHAR 00F9
ENCODING 249
SWIDTH 600 0
DWIDTH 10 0
BBX 8 14 0 0
BITMAP
30
30
0C
0C
00
00
C3
C3
C3
C3
C3
C3
3F
3F
ENDCHAR
STARTCHAR 00FA
ENCODING 250
SWIDTH 600 0
DWIDTH 10 0
BBX 8 14 0 0
BITMAP
0C
0C
30
30
00
00
C3
C3
C3
C3
C3
C3
3F
3F
ENDCHAR
STARTCHAR 00FB
ENCODING 251
SWIDTH 600 0
DWIDTH 10 0
BBX 8 14 0 0
BITMAP
0C
0C
33
33
00
00
C3
C3
C3
C3
C3
C3
3F
3F
ENDCHAR
STARTCHAR 00FC
ENCODING 252
SWIDTH 600 0
DWIDTH 10 0
BBX 8 12 0 0
BITMAP
33
33
00
00
C3
C3
C3
C3
C3
C3
3F
3F
ENDCHAR
STARTCHAR 00FD
ENCODING 253
SWIDTH 600 0
DWIDTH 10 0
BBX 8 16 0 -4
BITMAP
0C
0C
30
30
00
00
C3
C3
C3
C3
3F
3F
03
03
FC
FC
ENDCHAR
STARTCHAR 00FE
ENCODING 254
SWIDTH 600 0
DWIDTH 10 0
BBX 8 12 0 -4
BITMAP
C0
C0
FC
FC
C3
C3
C3
C3
FC
FC
C0
C0
ENDCHAR
STARTCHAR 00FF
ENCODING 255
SWIDTH 600 0
DWIDTH 10 0
BBX 8 14 0 -4
BITMAP
33
33
00
00
C3
C3
C3
C3
3F
3F
03
03
FC
FC
ENDCHAR
STARTCHAR 0152
ENCODING 338
SWIDTH 1140 0
DWIDTH 19 0
BBX 17 10 0 0
BITMAP
3C7F80
3C7F80
C3C000
C3C000
C07F80
C07F80
C3C000
C3C000
3C7F80
3C7F80
ENDCHAR
STARTCHAR 0153
ENCODING 339
SWIDTH 960 0
DWIDTH 16 0
BBX 14 8 0 0
BITMAP
3CF0
3CF0
C3FC
C3FC
C300
C300
3CFC
3CFC
ENDCHAR
STARTCHAR 0178
ENCODING 376
SWIDTH 720 0
DWIDTH 12 0
BBX 10 14 0 0
BITMAP
3300
3300
0000
0000
C0C0
C0C0
C0C0
C0C0
3300
3300
0C00
0C00
0C00
0C00
ENDCHAR
STARTCHAR 018F
ENCODING 399
SWIDTH 720 0
DWIDTH 12 0
BBX 10 10 0 0
BITMAP
FF00
FF00
00C0
00C0
FFC0
FFC0
C0C0
C0C0
3F00
3F00
ENDCHAR
STARTCHAR 0192
ENCODING 402
SWIDTH 720 0
DWIDTH 12 0
BBX 10 14 0 -4
BITMAP
03C0
03C0
0C00
0C00
3F00
3F00
0C00
0C00
0C00
0C00
0C00
0C00
F000
F000
ENDCHAR
STARTCHAR 0391
ENCODING 913
SWIDTH 720 0
DWIDTH 12 0
BBX 10 10 0 0
BITMAP
3F00
3F00
C0C0
C0C0
C0C0
C0C0
FFC0
FFC0
C0C0
C0C0
ENDCHAR
STARTCHAR 0392
ENCODING 914
SWIDTH 720 0
DWIDTH 12 0
BBX 10 10 0 0
BITMAP
FF00
FF00
C0C0
C0C0
FF00
FF00
C0C0
C0C0
FF00
FF00
ENDCHAR
STARTCHAR 0393
ENCODING 915
SWIDTH 660 0
DWIDTH 11 0
BBX 9 10 0 0
BITMAP
FF80
FF80
C000
C000
C000
C000
C000
C000
C000
C000
ENDCHAR
STARTCHAR 0394
ENCODING 916
SWIDTH 720 0
DWIDTH 12 0
BBX 10 10 0 0
BITMAP
0C00
0C00
3300
3300
3300
3300
C0C0
C0C0
FFC0
FFC0
ENDCHAR
STARTCHAR 0395
ENCODING 917
SWIDTH 780 0
DWIDTH 13 0
BBX 11 10 0 0
BITMAP
FFE0
FFE0
C000
C000
FFE0
FFE0
C000
C000
FFE0
FFE0
ENDCHAR
STARTCHAR 0396
ENCODING 918
SWIDTH 720 0
DWIDTH 12 0
BBX 10 10 0 0
BITMAP
FFC0
FFC0
0300
0300
0C00
0C00
3000
3000
FFC0
FFC0
ENDCHAR
STARTCHAR 0397
ENCODING 919
SWIDTH 720 0
DWIDTH 12 0
BBX 10 10 0 0
BITMAP
C0C0
C0C0
C0C0
C0C0
FFC0
FFC0
C0C0
C0C0
C0C0
C0C0
ENDCHAR
STARTCHAR 0398
ENCODING 920
SWIDTH 720 0
DWIDTH 12 0
BBX 10 10 0 0
BITMAP
3F00
3F00
C0C0
C0C0
DEC0
DEC0
C0C0
C0C0
3F00
3F00
ENDCHAR
STARTCHAR 0399
ENCODING 921
SWIDTH 240 0
DWIDTH 4 0
BBX 2 10 0 0
BITMAP
C0
C0
C0
C0
C0
C0
C0
C0
C0
C0
ENDCHAR
STARTCHAR 039A
ENCODING 922
SWIDTH 720 0
DWIDTH 12 0
BBX 10 10 0 0
BITMAP
C0C0
C0C0
C300
C300
CC00
CC00
F300
F300
C0C0
C0C0
ENDCHAR
STARTCHAR 039B
ENCODING 923
SWIDTH 720 0
DWIDTH 12 0
BBX 10 10 0 0
BITMAP
0C00
0C00
3300
3300
3300
3300
C0C0
C0C0
C0C0
C0C0
ENDCHAR
STARTCHAR 039C
ENCODING 924
SWIDTH 720 0
DWIDTH 12 0
BBX 10 10 0 0
BITMAP
C0C0
C0C0
F3C0
F3C0
CCC0
CCC0
C0C0
C0C0
C0C0
C0C0
ENDCHAR
STARTCHAR 039D
ENCODING 925
SWIDTH 720 0
DWIDTH 12 0
BBX 10 10 0 0
BITMAP
C0C0
C0C0
F0C0
F0C0
CCC0
CCC0
C3C0
C3C0
C0C0
C0C0
ENDCHAR
STARTCHAR 039E
ENCODING 926
SWIDTH 720 0
DWIDTH 12 0
BBX 10 10 0 0
BITMAP
FFC0
FFC0
0000
0000
3F00
3F00
0000
0000
FFC0
FFC0
ENDCHAR
STARTCHAR 039F
ENCODING 927
SWIDTH 720 0
DWIDTH 12 0
BBX 10 10 0 0
BITMAP
3F00
3F00
C0C0
C0C0
C0C0
C0C0
C0C0
C0C0
3F00
3F00
ENDCHAR
STARTCHAR 03A0
ENCODING 928
SWIDTH 720 0
DWIDTH 12 0
BBX 10 10 0 0
BITMAP
FFC0
FFC0
C0C0
C0C0
C0C0
C0C0
C0C0
C0C0
C0C0
C0C0
ENDCHAR
STARTCHAR 03A1
ENCODING 929
SWIDTH 720 0
DWIDTH 12 0
BBX 10 10 0 0
BITMAP
FF00
FF00
C0C0
C0C0
FF00
FF00
C000
C000
C000
C000
ENDCHAR
STARTCHAR 03A3
ENCODING 931
SWIDTH 720 0
DWIDTH 12 0
BBX 10 10 0 0
BITMAP
FFC0
FFC0
3000
3000
0C00
0C00
3000
3000
FFC0
FFC0
ENDCHAR
STARTCHAR 03A4
ENCODING 932
SWIDTH 720 0
DWIDTH 12 0
BBX 10 10 0 0
BITMAP
FFC0
FFC0
0C00
0C00
0C00
0C00
0C00
0C00
0C00
0C00
ENDCHAR
STARTCHAR 03A5
ENCODING 933
SWIDTH 720 0
DWIDTH 12 0
BBX 10 10 0 0
BITMAP
C0C0
C0C0
3300
3300
0C00
0C00
0C00
0C00
0C00
0C00
ENDCHAR
STARTCHAR 03A6
ENCODING 934
SWIDTH 720 0
DWIDTH 12 0
BBX 10 10 0 0
BITMAP
0C00
0C00
3F00
3F00
CCC0
CCC0
3F00
3F00
0C00
0C00
ENDCHAR
STARTCHAR 03A7
ENCODING 935
SWIDTH 720 0
DWIDTH 12 0
BBX 10 10 0 0
BITMAP
C0C0
C0C0
3300
3300
0C00
0C00
3300
3300
C0C0
C0C0
ENDCHAR
STARTCHAR 03A8
ENCODING 936
SWIDTH 720 0
DWIDTH 12 0
BBX 10 10 0 0
BITMAP
CCC0
CCC0
CCC0
CCC0
CCC0
CCC0
3F00
3F00
0C00
0C00
ENDCHAR
STARTCHAR 03A9
ENCODING 937
SWIDTH 720 0
DWIDTH 12 0
BBX 10 10 0 0
BITMAP
3F00
3F00
C0C0
C0C0
C0C0
C0C0
3300
3300
F3C0
F3C0
ENDCHAR
STARTCHAR 03B1
ENCODING 945
SWIDTH 720 0
DWIDTH 12 0
BBX 10 8 0 0
BITMAP
3CC0
3CC0
C300
C300
C300
C300
3CC0
3CC0
ENDCHAR
STARTCHAR 03B2
ENCODING 946
SWIDTH 600 0
DWIDTH 10 0
BBX 8 12 0 -4
BITMAP
3C
3C
CC
CC
C3
C3
FF
FF
C0
C0
C0
C0
ENDCHAR
STARTCHAR 03B3
ENCODING 947
SWIDTH 720 0
DWIDTH 12 0
BBX 10 12 0 -4
BITMAP
C0C0
C0C0
3300
3300
3300
3300
0C00
0C00
0C00
0C00
0C00
0C00
ENDCHAR
STARTCHAR 03B4
ENCODING 948
SWIDTH 600 0
DWIDTH 10 0
BBX 8 12 0 0
BITMAP
FF
FF
30
30
3C
3C
C3
C3
C3
C3
3C
3C
ENDCHAR
STARTCHAR 03B5
ENCODING 949
SWIDTH 600 0
DWIDTH 10 0
BBX 8 10 0 0
BITMAP
3F
3F
C0
C0
3C
3C
C0
C0
3F
3F
ENDCHAR
STARTCHAR 03B6
ENCODING 950
SWIDTH 480 0
DWIDTH 8 0
BBX 6 14 0 -4
BITMAP
FC
FC
30
30
C0
C0
C0
C0
30
30
0C
0C
30
30
ENDCHAR
STARTCHAR 03B7
ENCODING 951
SWIDTH 600 0
DWIDTH 10 0
BBX 8 12 0 -4
BITMAP
CC
CC
F3
F3
C3
C3
C3
C3
03
03
03
03
ENDCHAR
STARTCHAR 03B8
ENCODING 952
SWIDTH 480 0
DWIDTH 8 0
BBX 6 10 0 0
BITMAP
30
30
CC
CC
FC
FC
CC
CC
30
30
ENDCHAR
STARTCHAR 03B9
ENCODING 953
SWIDTH 240 0
DWIDTH 4 0
BBX 2 8 0 0
BITMAP
C0
C0
C0
C0
C0
C0
C0
C0
ENDCHAR
STARTCHAR 03BA
ENCODING 954
SWIDTH 600 0
DWIDTH 10 0
BBX 8 8 0 0
BITMAP
C3
C3
CC
CC
FC
FC
C3
C3
ENDCHAR
STARTCHAR 03BB
ENCODING 955
SWIDTH 600 0
DWIDTH 10 0
BBX 8 10 0 0
BITMAP
30
30
0C
0C
3C
3C
33
33
C3
C3
ENDCHAR
STARTCHAR 03BC
ENCODING 956
SWIDTH 720 0
DWIDTH 12 0
BBX 10 12 0 -4
BITMAP
C0C0
C0C0
C0C0
C0C0
F3C0
F3C0
CCC0
CCC0
C000
C000
C000
C000
ENDCHAR
STARTCHAR 03BD
ENCODING 957
SWIDTH 720 0
DWIDTH 12 0
BBX 10 8 0 0
BITMAP
C0C0
C0C0
3300
3300
3300
3300
0C00
0C00
ENDCHAR
STARTCHAR 03BE
ENCODING 958
SWIDTH 480 0
DWIDTH 8 0
BBX 6 16 0 -4
BITMAP
30
30
C0
C0
30
30
C0
C0
C0
C0
30
30
0C
0C
30
30
ENDCHAR
STARTCHAR 03BF
ENCODING 959
SWIDTH 600 0
DWIDTH 10 0
BBX 8 8 0 0
BITMAP
3C
3C
C3
C3
C3
C3
3C
3C
ENDCHAR
STARTCHAR 03C0
ENCODING 960
SWIDTH 720 0
DWIDTH 12 0
BBX 10 8 0 0
BITMAP
FFC0
FFC0
3300
3300
3300
3300
3300
3300
ENDCHAR
STARTCHAR 03C1
ENCODING 961
SWIDTH 600 0
DWIDTH 10 0
BBX 8 12 0 -4
BITMAP
3C
3C
C3
C3
C3
C3
FC
FC
C0
C0
C0
C0
ENDCHAR
STARTCHAR 03C2
ENCODING 962
SWIDTH 480 0
DWIDTH 8 0
BBX 6 12 0 -4
BITMAP
3C
3C
C0
C0
C0
C0
3C
3C
0C
0C
30
30
ENDCHAR
STARTCHAR 03C3
ENCODING 963
SWIDTH 600 0
DWIDTH 10 0
BBX 8 8 0 0
BITMAP
3F
3F
C3
C3
C3
C3
3C
3C
ENDCHAR
STARTCHAR 03C4
ENCODING 964
SWIDTH 480 0
DWIDTH 8 0
BBX 6 8 0 0
BITMAP
FC
FC
30
30
30
30
30
30
ENDCHAR
STARTCHAR 03C5
ENCODING 965
SWIDTH 480 0
DWIDTH 8 0
BBX 6 8 0 0
BITMAP
CC
CC
CC
CC
CC
CC
30
30
ENDCHAR
STARTCHAR 03C6
ENCODING 966
SWIDTH 720 0
DWIDTH 12 0
BBX 10 12 0 -4
BITMAP
CF00
CF00
CCC0
CCC0
CCC0
CCC0
3F00
3F00
0C00
0C00
0C00
0C00
ENDCHAR
STARTCHAR 03C7
ENCODING 967
SWIDTH 600 0
DWIDTH 10 0
BBX 8 12 0 -4
BITMAP
C3
C3
C3
C3
3C
3C
3C
3C
C3
C3
C3
C3
ENDCHAR
STARTCHAR 03C8
ENCODING 968
SWIDTH 720 0
DWIDTH 12 0
BBX 10 12 0 -4
BITMAP
CCC0
CCC0
CCC0
CCC0
CCC0
CCC0
3F00
3F00
0C00
0C00
0C00
0C00
ENDCHAR
STARTCHAR 03C9
ENCODING 969
SWIDTH 720 0
DWIDTH 12 0
BBX 10 8 0 0
BITMAP
3300
3300
C0C0
C0C0
CCC0
CCC0
3300
3300
ENDCHAR
STARTCHAR 2014
ENCODING 8212
SWIDTH 720 0
DWIDTH 12 0
BBX 10 2 0 4
BITMAP
FFC0
FFC0
ENDCHAR
STARTCHAR 2018
ENCODING 8216
SWIDTH 360 0
DWIDTH 6 0
BBX 4 4 0 8
BITMAP
30
30
C0
C0
ENDCHAR
STARTCHAR 2019
ENCODING 8217
SWIDTH 360 0
DWIDTH 6 0
BBX 4 4 0 8
BITMAP
C0
C0
30
30
ENDCHAR
STARTCHAR 201A
ENCODING 8218
SWIDTH 360 0
DWIDTH 6 0
BBX 4 4 0 -2
BITMAP
30
30
C0
C0
ENDCHAR
STARTCHAR 201B
ENCODING 8219
SWIDTH 360 0
DWIDTH 6 0
BBX 4 4 0 8
BITMAP
C0
C0
30
30
ENDCHAR
STARTCHAR 201C
ENCODING 8220
SWIDTH 600 0
DWIDTH 10 0
BBX 8 4 0 8
BITMAP
33
33
CC
CC
ENDCHAR
STARTCHAR 201D
ENCODING 8221
SWIDTH 600 0
DWIDTH 10 0
BBX 8 4 0 8
BITMAP
CC
CC
33
33
ENDCHAR
STARTCHAR 201E
ENCODING 8222
SWIDTH 720 0
DWIDTH 12 0
BBX 10 4 0 -2
BITMAP
30C0
30C0
C300
C300
ENDCHAR
STARTCHAR 2020
ENCODING 8224
SWIDTH 480 0
DWIDTH 8 0
BBX 6 10 0 0
BITMAP
30
30
FC
FC
30
30
30
30
30
30
ENDCHAR
STARTCHAR 2026
ENCODING 8230
SWIDTH 720 0
DWIDTH 12 0
BBX 10 2 0 0
BITMAP
CCC0
CCC0
ENDCHAR
STARTCHAR 2039
ENCODING 8249
SWIDTH 480 0
DWIDTH 8 0
BBX 6 10 0 0
BITMAP
0C
0C
30
30
C0
C0
30
30
0C
0C
ENDCHAR
STARTCHAR 203A
ENCODING 8250
SWIDTH 480 0
DWIDTH 8 0
BBX 6 10 0 0
BITMAP
C0
C0
30
30
0C
0C
30
30
C0
C0
ENDCHAR
STARTCHAR 20AC
ENCODING 8364
SWIDTH 840 0
DWIDTH 14 0
BBX 12 14 0 -2
BITMAP
0FC0
0FC0
3030
3030
FF00
FF00
3000
3000
FF00
FF00
3030
3030
0FC0
0FC0
ENDCHAR
STARTCHAR 2122
ENCODING 8482
SWIDTH 1260 0
DWIDTH 21 0
BBX 19 8 0 4
BITMAP
FCC060
FCC060
30F1E0
30F1E0
30CC60
30CC60
30C060
30C060
ENDCHAR
STARTCHAR FB01
ENCODING 64257
SWIDTH 720 0
DWIDTH 12 0
BBX 10 10 0 0
BITMAP
0CC0
0CC0
3000
3000
FCC0
FCC0
30C0
30C0
30C0
30C0
ENDCHAR
STARTCHAR FB02
ENCODING 64258
SWIDTH 720 0
DWIDTH 12 0
BBX 10 10 0 0
BITMAP
0CC0
0CC0
30C0
30C0
FCC0
FCC0
30C0
30C0
30C0
30C0
ENDCHAR
ENDFONT
